<?xml version="1.0" encoding="utf-8"?><svg width="200" height="218" viewBox="0 0 200 218" fill="none" xmlns="http://www.w3.org/2000/svg">
<path d="M70.1369 144.283C80.7862 143.445 88.9695 137.051 88.4147 130.003C87.86 122.954 78.7773 117.919 68.128 118.758C57.4787 119.596 49.2954 125.989 49.8501 133.038C50.4049 140.086 59.4876 145.121 70.1369 144.283Z" fill="#F9F9F9" stroke="#142533" stroke-miterlimit="10" stroke-linejoin="round"/>
<path d="M69.3322 141.396C79.9815 140.558 88.1648 134.165 87.6101 127.116C87.0553 120.067 77.9726 115.033 67.3233 115.871C56.674 116.709 48.4907 123.102 49.0455 130.151C49.6002 137.2 58.6829 142.234 69.3322 141.396Z" fill="#F9F9F9" stroke="#142533" stroke-miterlimit="10" stroke-linejoin="round"/>
<path d="M63.1855 124.883L68.1891 134.09L75.9024 127.522L63.1855 124.883Z" fill="#F9F9F9" stroke="#142533" stroke-miterlimit="10" stroke-linejoin="round"/>
<path d="M130.315 74.0454C130.189 73.989 130.069 73.9187 129.959 73.8356C130.007 73.8831 130.06 73.9238 130.119 73.9565C130.194 74.0028 130.254 74.0241 130.311 74.0632C130.393 74.0948 130.471 74.1366 130.542 74.1877V74.1664C130.471 74.1201 130.389 74.0917 130.315 74.0454ZM131.285 75.5426C131.271 75.6276 131.237 75.708 131.186 75.7773C131.218 75.7469 131.245 75.7107 131.264 75.6706C131.282 75.6304 131.289 75.5864 131.285 75.5426ZM170.218 54.9418C170.218 54.8742 170.247 54.7924 170.254 54.7035C170.254 54.547 170.286 54.3977 170.293 54.2448C170.261 54.5471 170.225 54.8529 170.172 55.1516H170.2C170.217 55.0829 170.223 55.0122 170.218 54.9418ZM156.758 55.2974C156.758 55.2583 156.737 55.2227 156.726 55.1978C156.738 55.2602 156.746 55.3231 156.751 55.3863C156.794 55.3863 156.794 55.3863 156.787 55.4219C156.794 55.3721 156.779 55.3472 156.758 55.2974ZM138.401 63.5797L138.231 63.345C138.246 63.3712 138.259 63.3985 138.27 63.4268C138.282 63.4657 138.301 63.5019 138.327 63.5334C138.359 63.569 138.373 63.5939 138.408 63.6295C138.408 63.601 138.408 63.601 138.416 63.5797H138.401ZM138.067 63.0854C138.095 63.1521 138.136 63.2126 138.188 63.2632C138.12 63.1281 137.999 62.9502 137.889 62.7333C137.94 62.8574 138.004 62.9755 138.081 63.0854H138.067Z" fill="#F9F9F9" stroke="#142533" stroke-miterlimit="10" stroke-linejoin="round"/>
<path d="M157.301 56.2896C157.174 55.9786 157.006 55.6867 156.799 55.4219C156.806 55.4364 156.809 55.4522 156.809 55.4681C156.809 55.484 156.806 55.4998 156.799 55.5143C156.807 55.5362 156.807 55.56 156.799 55.5819C156.799 55.6103 156.817 55.6566 156.831 55.685C156.822 55.7163 156.822 55.7498 156.831 55.781C156.867 56.0157 156.853 56.2611 156.867 56.4923C156.881 56.7234 156.839 56.9795 156.814 57.2035C156.782 57.4441 156.732 57.6819 156.664 57.9147V57.9325C156.608 58.1697 156.532 58.4017 156.437 58.6259C156.361 58.8588 156.264 59.0839 156.145 59.2981V59.3372V59.3585C156.039 59.5907 155.913 59.8132 155.768 60.0235C155.758 60.0283 155.748 60.0357 155.742 60.0451C155.735 60.0544 155.73 60.0654 155.729 60.0769C155.591 60.3061 155.442 60.5281 155.281 60.7419C155.274 60.7568 155.263 60.7692 155.249 60.7774C155.078 61.0157 154.893 61.2468 154.705 61.4567C154.516 61.6665 154.349 61.8372 154.179 62.0256C153.454 62.7273 152.656 63.3496 151.799 63.882L151.131 64.2696C150.75 64.4616 150.363 64.6714 149.972 64.835C149.58 64.9986 149.186 65.1622 148.791 65.3258C148.542 65.4004 148.29 65.4751 148.058 65.5569C147.09 65.817 146.101 65.9954 145.103 66.0903C144.832 66.0761 144.56 66.0761 144.289 66.0903C144.014 66.0976 143.739 66.0821 143.467 66.0441C143.457 66.0494 143.445 66.0522 143.434 66.0522C143.422 66.0522 143.41 66.0494 143.4 66.0441C143.137 66.0263 142.859 65.9765 142.582 65.9303C142.305 65.8841 142.052 65.8236 141.782 65.756C141.759 65.7482 141.734 65.7482 141.711 65.756C141.487 65.6814 141.27 65.5854 141.028 65.5071C140.786 65.4289 140.594 65.3151 140.356 65.2155C140.133 65.1019 139.919 64.9711 139.716 64.8243C139.516 64.7052 139.327 64.567 139.154 64.4118C138.972 64.2638 138.807 64.0955 138.663 63.9104C138.612 63.8654 138.569 63.8126 138.535 63.7539C138.482 63.7148 138.428 63.6721 138.421 63.6259C138.487 63.9523 138.585 64.2715 138.713 64.5789C140.256 68.0284 145.644 68.9566 150.804 66.6629C155.964 64.3692 158.848 59.739 157.301 56.2896ZM124.189 62.0541C124.189 62.0754 124.189 62.0754 124.189 62.0825V62.0399V62.0541ZM164.673 38.491V38.4448C164.676 38.4409 164.678 38.4358 164.678 38.4306C164.678 38.4253 164.676 38.4202 164.673 38.4163L164.634 38.3345C164.67 38.4038 164.691 38.4803 164.694 38.5586C164.68 38.5372 164.666 38.5088 164.673 38.4875V38.491ZM170.217 54.9418C170.217 54.8742 170.245 54.7924 170.252 54.7035C170.252 54.547 170.284 54.3977 170.291 54.2448C170.259 54.547 170.224 54.8529 170.171 55.1516H170.199C170.215 55.0829 170.221 55.0122 170.217 54.9418Z" fill="#F9F9F9" stroke="#142533" stroke-miterlimit="10" stroke-linejoin="round"/>
<path d="M130.321 74.0419C130.254 74.0161 130.19 73.9852 130.129 73.9494C130.196 73.9957 130.253 74.0277 130.313 74.0632C130.477 74.1557 130.634 74.2339 130.769 74.3086L130.321 74.0419ZM131.195 75.7986C131.247 75.7234 131.28 75.6368 131.291 75.5462C131.268 75.6308 131.233 75.7121 131.188 75.788L131.131 75.8911L131.195 75.7986ZM119.67 58.9176C119.689 58.9849 119.714 59.0503 119.745 59.1132C119.771 59.1803 119.805 59.2446 119.844 59.3052L119.67 58.9176Z" fill="#F9F9F9" stroke="#142533" stroke-miterlimit="10" stroke-linejoin="round"/>
<path d="M170.201 55.1445L170.183 55.1551H170.144C169.871 55.1024 169.629 54.9449 169.47 54.7164C169.311 54.4878 169.248 54.2063 169.294 53.9318C169.444 53.069 169.512 52.1938 169.497 51.3181C169.494 51.0407 169.594 50.7722 169.778 50.5641L171.46 54.1523C171.35 54.2614 171.265 54.392 171.208 54.5358C171.152 54.6797 171.126 54.8337 171.132 54.988C171.14 55.0981 171.14 55.2086 171.132 55.3187L170.201 55.1445Z" fill="#F9F9F9" stroke="#142533" stroke-miterlimit="10" stroke-linejoin="round"/>
<path d="M171.461 54.1487L169.779 50.5606C169.873 50.4562 169.988 50.3736 170.117 50.3188L174.132 48.5407C174.257 48.4846 174.369 48.4045 174.463 48.3049C174.556 48.2053 174.629 48.0882 174.677 47.9604C174.726 47.8325 174.748 47.6964 174.744 47.5598C174.739 47.4232 174.708 47.2889 174.651 47.1645L176.276 50.8095C176.335 50.9336 176.368 51.0682 176.373 51.2053C176.379 51.3424 176.357 51.4792 176.308 51.6075C176.26 51.7359 176.186 51.8532 176.091 51.9526C175.997 52.0519 175.883 52.1312 175.757 52.1857L171.742 53.9638C171.638 54.0076 171.543 54.0703 171.461 54.1487Z" fill="#F9F9F9" stroke="#142533" stroke-miterlimit="10" stroke-linejoin="round"/>
<path d="M149.699 77.9786C149.598 77.7527 149.419 77.5701 149.196 77.4633C148.973 77.3565 148.719 77.3324 148.479 77.3954C147.026 77.7445 145.55 77.9917 144.062 78.135C143.969 78.1392 143.878 78.1648 143.796 78.2097L142.178 74.554C142.263 74.5123 142.357 74.4915 142.452 74.4935C143.935 74.3401 145.406 74.0846 146.854 73.729C147.096 73.6693 147.351 73.696 147.575 73.8044C147.799 73.9129 147.978 74.0963 148.081 74.3228L149.699 77.9786Z" fill="#F9F9F9" stroke="#142533" stroke-miterlimit="10" stroke-linejoin="round"/>
<path d="M129.732 74.9807C129.591 74.8898 129.455 74.79 129.327 74.682C129.175 74.5575 128.991 74.4774 128.797 74.4504C128.602 74.4234 128.404 74.4506 128.224 74.5291L123.768 76.517C123.518 76.6292 123.233 76.638 122.976 76.5415C122.719 76.4449 122.51 76.2508 122.396 76.0013L120.76 72.3349C120.876 72.5865 121.085 72.7831 121.343 72.8833C121.601 72.9835 121.888 72.9794 122.143 72.8719L126.599 70.884C126.778 70.8048 126.975 70.7762 127.168 70.8013C127.362 70.8264 127.545 70.9042 127.698 71.0263C128.402 71.5881 129.16 72.08 129.96 72.495C130.089 72.5572 130.205 72.6464 130.297 72.7567C130.39 72.8669 130.458 72.9956 130.497 73.1343C130.536 73.2729 130.545 73.4182 130.524 73.5606C130.502 73.7031 130.45 73.8392 130.372 73.9601L130.319 74.0419L130.312 74.0632L129.732 74.9807Z" fill="#F9F9F9" stroke="#142533" stroke-miterlimit="10" stroke-linejoin="round"/>
<path d="M165.357 41.1048C165.44 40.9652 165.491 40.8083 165.504 40.6462C165.518 40.4841 165.494 40.3211 165.435 40.1695L164.653 38.4163C164.655 38.4269 164.655 38.4378 164.653 38.4483C164.652 38.4106 164.64 38.3738 164.621 38.3417L163.835 36.5636C163.883 36.7082 163.898 36.8617 163.88 37.013C163.861 37.1642 163.809 37.3095 163.728 37.4384L163.607 37.6411L163.49 37.8153L162.661 39.1596L162.405 39.5614C162.322 39.6836 162.265 39.8224 162.24 39.9683C162.215 40.1142 162.221 40.2638 162.258 40.407C162.296 40.5503 162.363 40.6839 162.457 40.7987C162.55 40.9136 162.667 41.007 162.8 41.0728L163.273 41.3288C163.748 41.6034 164.207 41.9037 164.649 42.2285L165.357 41.1048Z" fill="#F9F9F9" stroke="#142533" stroke-miterlimit="10" stroke-linejoin="round"/>
<path d="M161.253 72.4772L159.606 68.8108C159.512 68.5926 159.496 68.3485 159.561 68.1198C159.625 67.891 159.767 67.6916 159.962 67.5555C161.119 66.6507 162.228 65.6856 163.284 64.6643C163.366 64.5613 163.472 64.4796 163.593 64.4261L165.588 67.9822C165.459 67.9869 165.333 68.0174 165.216 68.0717C165.1 68.1261 164.995 68.2033 164.909 68.2987C163.865 69.332 162.756 70.2965 161.587 71.1863C161.396 71.3339 161.26 71.5409 161.199 71.7746C161.139 72.0083 161.158 72.2554 161.253 72.4772Z" fill="#F9F9F9" stroke="#142533" stroke-miterlimit="10" stroke-linejoin="round"/>
<path d="M169.734 68.6899L165.822 68C165.746 67.9946 165.67 67.9946 165.595 68L163.6 64.4438C163.786 64.3644 163.989 64.3362 164.19 64.362L168.102 65.0448C168.307 65.0811 168.518 65.0551 168.708 64.9702C168.898 64.8852 169.059 64.7453 169.169 64.5683L172.678 58.9674L173.13 58.2561L173.628 57.4453L173.774 57.2497C173.845 57.1306 173.892 56.9984 173.91 56.8609C173.929 56.7234 173.92 56.5835 173.884 56.4496L174.556 57.9539C174.619 58.0541 174.667 58.1631 174.698 58.2775L175.36 59.7639C175.479 59.9279 175.547 60.1237 175.555 60.3264C175.562 60.5291 175.509 60.7295 175.402 60.9019L170.804 68.224C170.694 68.4007 170.533 68.5398 170.341 68.623C170.15 68.7061 169.939 68.7295 169.734 68.6899Z" fill="#F9F9F9" stroke="#142533" stroke-miterlimit="10" stroke-linejoin="round"/>
<path d="M161.733 76.1649L151.957 80.5461C151.817 80.6059 151.665 80.6326 151.513 80.6243C151.317 80.6209 151.127 80.5615 150.964 80.4531C150.802 80.3446 150.673 80.1918 150.595 80.0127L148.963 76.3569C149.034 76.5207 149.147 76.6631 149.289 76.7703C149.432 76.8776 149.6 76.9459 149.777 76.9686C149.963 76.98 150.149 76.9484 150.321 76.8761L160.097 72.5127C160.223 72.4589 160.337 72.3807 160.433 72.2828C160.529 72.1848 160.604 72.0689 160.655 71.9417C160.706 71.8146 160.731 71.6786 160.729 71.5417C160.728 71.4047 160.699 71.2695 160.645 71.1436L162.274 74.8029C162.374 75.056 162.375 75.3381 162.274 75.5914C162.174 75.8447 161.98 76.0499 161.733 76.1649Z" fill="#F9F9F9" stroke="#142533" stroke-miterlimit="10" stroke-linejoin="round"/>
<path d="M173.878 56.4531C173.863 56.3217 173.808 56.198 173.722 56.0975C173.654 55.9763 173.558 55.8728 173.443 55.7955C173.327 55.7183 173.195 55.6695 173.057 55.653L171.115 55.2974L170.201 55.1267H170.173H170.152C169.878 55.0763 169.636 54.9214 169.475 54.695C169.314 54.4686 169.248 54.1884 169.291 53.914C169.441 53.0498 169.512 52.1738 169.504 51.2967C169.501 51.1649 169.521 51.0336 169.565 50.9091C169.604 50.7751 169.676 50.653 169.775 50.5535V50.5322C169.824 50.4868 169.877 50.444 169.931 50.4041C169.975 50.3519 170.035 50.3156 170.102 50.301L174.127 48.5229C174.377 48.4052 174.571 48.1953 174.669 47.9374C174.768 47.6794 174.762 47.3935 174.654 47.1396L174.134 45.9732L172.001 41.1972C171.946 41.0724 171.868 40.9596 171.769 40.8655C171.671 40.7714 171.555 40.6979 171.428 40.6492C171.301 40.6005 171.165 40.5777 171.029 40.582C170.893 40.5864 170.759 40.6178 170.635 40.6745L166.183 42.6553C166.004 42.7364 165.806 42.7663 165.61 42.7418C165.415 42.7174 165.231 42.6394 165.077 42.5166C164.956 42.4063 164.807 42.3139 164.664 42.1965C164.223 41.8731 163.762 41.5773 163.285 41.311C163.135 41.215 162.961 41.1368 162.812 41.0408C162.681 40.976 162.565 40.8843 162.473 40.7717C162.38 40.6591 162.312 40.5281 162.273 40.3874C162.235 40.2467 162.226 40.0994 162.248 39.9552C162.271 39.811 162.323 39.6732 162.403 39.5507L162.644 39.156L163.477 37.8047H163.498L163.626 37.6198L163.733 37.4313C163.816 37.3045 163.869 37.1603 163.887 37.0099C163.906 36.8594 163.889 36.7067 163.839 36.5636L163.772 36.4284C163.705 36.2806 163.602 36.1518 163.473 36.0537C163.344 35.9556 163.192 35.8913 163.032 35.8666L154.497 34.3659C154.297 34.3344 154.092 34.362 153.908 34.4454C153.723 34.5288 153.567 34.6643 153.459 34.8353L151.105 38.5835C151.021 38.7144 150.909 38.8247 150.776 38.906C150.644 38.9873 150.495 39.0375 150.34 39.0529C148.848 39.1935 147.368 39.4431 145.913 39.7997C145.675 39.8556 145.425 39.8282 145.205 39.7221C144.985 39.6159 144.808 39.4374 144.704 39.2165L143.811 37.2037C143.754 37.0746 143.671 36.9583 143.568 36.8614C143.465 36.7645 143.344 36.6891 143.211 36.6395C143.079 36.5898 142.938 36.567 142.797 36.5723C142.656 36.5776 142.517 36.6109 142.389 36.6703L132.648 41.0408C132.398 41.1585 132.203 41.369 132.105 41.6278C132.006 41.8866 132.013 42.1734 132.122 42.4277L133.143 44.7285C133.243 44.9456 133.266 45.191 133.205 45.4226C133.145 45.6543 133.006 45.8577 132.812 45.9981C131.635 46.8787 130.528 47.8488 129.501 48.8999C129.383 49.019 129.239 49.1087 129.081 49.1619C128.922 49.215 128.753 49.23 128.587 49.2057L124.675 48.5123C124.472 48.4782 124.262 48.5041 124.073 48.5869C123.883 48.6696 123.722 48.8055 123.609 48.9781L119.01 56.3073C118.902 56.4821 118.846 56.6845 118.85 56.8901C118.854 57.0958 118.917 57.296 119.032 57.4667C119.2 57.692 119.446 57.8467 119.722 57.9005L119.942 57.9289L121.72 58.2419L122.645 58.3913C122.919 58.4481 123.16 58.6078 123.319 58.8374C123.479 59.067 123.544 59.3489 123.502 59.6252C123.459 59.8137 123.441 60.0093 123.392 60.2191C123.323 60.7712 123.291 61.3271 123.296 61.8834C123.296 61.9972 123.296 62.1074 123.296 62.239C123.3 62.4471 123.243 62.6518 123.133 62.8281C123.022 63.0044 122.863 63.1445 122.673 63.2312L118.641 65.0341C118.392 65.1551 118.201 65.3675 118.106 65.6268C118.011 65.8861 118.02 66.1721 118.132 66.4246L118.488 67.2461L120.774 72.342C120.774 72.3705 120.774 72.3705 120.81 72.3776C120.845 72.3847 120.81 72.4238 120.835 72.4309C120.86 72.4381 120.877 72.5127 120.895 72.5198C120.94 72.5792 120.99 72.634 121.045 72.6834C121.146 72.7777 121.268 72.8472 121.4 72.8861C121.522 72.9389 121.653 72.9661 121.786 72.9661C121.919 72.9661 122.05 72.9389 122.172 72.8861L126.624 70.9054C126.804 70.8262 127.002 70.7973 127.196 70.8218C127.391 70.8462 127.576 70.923 127.73 71.0441C128.44 71.6042 129.199 72.0982 129.999 72.5198C130.127 72.5842 130.24 72.6748 130.331 72.7858C130.421 72.8968 130.487 73.0257 130.524 73.1641C130.562 73.3024 130.569 73.447 130.547 73.5885C130.524 73.7299 130.472 73.8651 130.394 73.985L130.347 74.0597L130.34 74.0774L129.732 74.9807L129.042 76.108C128.934 76.2765 128.876 76.4728 128.876 76.6734C128.876 76.874 128.934 77.0704 129.042 77.2389C129.205 77.4749 129.452 77.6401 129.732 77.7012L129.971 77.7332L131.749 78.0283L138.267 79.1663C138.473 79.1985 138.683 79.1699 138.873 79.084C139.062 78.9981 139.223 78.8586 139.334 78.6827L141.674 74.9629C141.784 74.7734 141.96 74.6305 142.168 74.5611V74.5397L142.293 74.5148C142.346 74.4864 142.385 74.5148 142.435 74.4935C143.545 74.382 144.649 74.2122 145.742 73.985C145.924 73.9618 146.104 73.9237 146.279 73.8712C146.475 73.8214 146.663 73.7929 146.841 73.7396C146.939 73.7062 147.043 73.6941 147.147 73.7041C147.342 73.7154 147.531 73.7792 147.693 73.8887C147.855 73.9983 147.984 74.1494 148.068 74.3264L148.96 76.3392L148.989 76.3961V76.421C149.043 76.5281 149.12 76.6226 149.213 76.6983C149.312 76.7953 149.435 76.8651 149.569 76.901C149.628 76.926 149.692 76.9405 149.757 76.9437C149.945 76.9608 150.135 76.9302 150.308 76.8548L160.091 72.4843C160.216 72.4336 160.329 72.3583 160.423 72.2629C160.518 72.1675 160.592 72.054 160.642 71.9292C160.692 71.8043 160.716 71.6707 160.713 71.5364C160.71 71.402 160.68 71.2696 160.625 71.1472V71.1258L159.604 68.8108V68.7894C159.561 68.6752 159.533 68.5555 159.522 68.4338C159.5 68.2623 159.529 68.088 159.605 67.9325C159.68 67.7771 159.8 67.6472 159.949 67.559C161.104 66.6523 162.209 65.6837 163.26 64.6572C163.328 64.5777 163.411 64.5125 163.505 64.4652L163.587 64.426C163.67 64.3813 163.763 64.3581 163.857 64.3585C163.941 64.3479 164.026 64.3479 164.11 64.3585C164.12 64.3532 164.132 64.3504 164.143 64.3504C164.155 64.3504 164.167 64.3532 164.177 64.3585L168.089 65.0235C168.293 65.0621 168.503 65.0387 168.693 64.9563C168.884 64.8739 169.045 64.7362 169.156 64.5612L172.669 58.946L173.121 58.2597L173.637 57.4595L173.729 57.3102V57.2888L173.772 57.2355C173.845 57.1205 173.892 56.991 173.911 56.856C173.929 56.721 173.918 56.5835 173.878 56.4531ZM156.688 57.9538C156.632 58.1911 156.556 58.4231 156.46 58.6473C156.357 58.8856 156.265 59.1025 156.19 59.3265C156.162 59.3265 156.162 59.3265 156.155 59.3585V59.3799C156.037 59.5897 155.916 59.8208 155.799 60.052C155.788 60.0568 155.779 60.0642 155.772 60.0735C155.766 60.0829 155.761 60.0938 155.76 60.1053C155.622 60.3346 155.472 60.5565 155.312 60.7703C155.305 60.7852 155.294 60.7977 155.28 60.8059C155.109 61.0441 154.924 61.2753 154.736 61.4851C154.547 61.6949 154.38 61.8656 154.209 62.0541C153.485 62.7557 152.687 63.378 151.83 63.9104L151.162 64.298C150.781 64.4901 150.394 64.6999 150.002 64.8635C149.611 65.027 149.216 65.1906 148.822 65.3542C148.573 65.4289 148.32 65.5036 148.089 65.5853C147.121 65.8454 146.132 66.0239 145.134 66.1188C144.863 66.1045 144.591 66.1045 144.32 66.1188C144.049 66.1188 143.786 66.101 143.498 66.0725C143.488 66.0778 143.476 66.0806 143.464 66.0806C143.453 66.0806 143.441 66.0778 143.431 66.0725C143.167 66.0548 142.89 66.005 142.613 65.9587C142.335 65.9125 142.083 65.8521 141.813 65.7845C141.789 65.7766 141.764 65.7766 141.741 65.7845C141.517 65.7098 141.3 65.6138 141.059 65.5356C140.817 65.4573 140.625 65.3435 140.387 65.2439C140.163 65.1304 139.949 64.9996 139.746 64.8528C139.546 64.7336 139.358 64.5955 139.185 64.4403C139.003 64.2922 138.838 64.124 138.694 63.9388C138.626 63.8713 138.601 63.8144 138.566 63.7824C138.53 63.7504 138.491 63.6686 138.445 63.6046C138.424 63.6046 138.388 63.5654 138.37 63.5583C138.344 63.5268 138.325 63.4906 138.313 63.4517C138.302 63.4234 138.289 63.3961 138.274 63.3699L138.232 63.2881C138.18 63.2374 138.139 63.177 138.111 63.1103C138.038 62.9986 137.979 62.8793 137.933 62.7546V62.7298C137.606 62.1648 137.336 61.5693 137.126 60.9517V60.9339C137.084 60.8874 137.056 60.831 137.044 60.7703C137.044 60.7419 137.015 60.717 137.044 60.7028C137.023 60.6869 137.005 60.6666 136.993 60.6432C136.981 60.6198 136.974 60.594 136.973 60.5676C136.966 60.5525 136.963 60.5361 136.963 60.5196C136.963 60.5031 136.966 60.4868 136.973 60.4716C136.936 60.3984 136.908 60.3207 136.891 60.2404L136.827 60.0164C136.827 59.9702 136.802 59.8955 136.795 59.8493C136.791 59.7948 136.791 59.7401 136.795 59.6857C136.777 59.6172 136.77 59.5465 136.773 59.4759C136.731 59.2132 136.731 58.9455 136.773 58.6828C136.749 58.6101 136.749 58.5316 136.773 58.4588C136.78 58.1612 136.832 57.8663 136.926 57.584C137.147 56.7361 137.508 55.931 137.993 55.2014C138.393 54.5624 138.871 53.9758 139.416 53.4553C140.317 52.5608 141.339 51.7971 142.453 51.1865C142.845 50.9551 143.252 50.7508 143.672 50.5748C148.551 48.3949 153.63 49.1132 155.465 52.136C155.465 52.136 155.596 52.36 155.76 52.6836C155.813 52.7939 155.874 52.8792 155.927 52.9895C156.232 53.5916 156.494 54.2142 156.713 54.8529C156.752 55.0022 156.78 55.1231 156.816 55.2263C156.816 55.2512 156.862 55.2867 156.848 55.3258C156.857 55.3549 156.857 55.3857 156.848 55.4147C156.857 55.46 156.874 55.5033 156.898 55.5428C156.898 55.5712 156.898 55.5926 156.916 55.6174C156.933 55.6423 156.916 55.685 156.916 55.7135C156.906 55.7447 156.906 55.7782 156.916 55.8095C156.951 56.0442 156.937 56.2896 156.951 56.5207C156.965 56.7519 156.923 57.0079 156.898 57.2319C156.866 57.4725 156.816 57.7103 156.748 57.9432L156.688 57.9538Z" fill="#F9F9F9" stroke="#142533" stroke-miterlimit="10" stroke-linejoin="round"/>
<path d="M139.889 82.8042L133.256 81.6663L131.368 81.3391C131.17 81.3044 130.986 81.2126 130.84 81.0748C130.693 80.9371 130.59 80.7595 130.543 80.5639L129.878 79.0738C129.814 78.9615 129.762 78.8422 129.725 78.7182L129.057 77.2175C129.21 77.4604 129.453 77.6339 129.732 77.7012L129.971 77.7296L131.749 78.0355L138.267 79.1627C138.472 79.1957 138.682 79.1682 138.872 79.0835C139.061 78.9989 139.222 78.8608 139.334 78.6862L141.663 74.9594C141.783 74.7713 141.962 74.6286 142.172 74.554L143.804 78.2097C143.595 78.286 143.416 78.4283 143.295 78.6151L140.952 82.3242C140.847 82.5047 140.688 82.648 140.497 82.734C140.306 82.82 140.094 82.8446 139.889 82.8042Z" fill="#F9F9F9" stroke="#142533" stroke-miterlimit="10" stroke-linejoin="round"/>
<path d="M123.275 61.887L121.344 61.5633C121.205 61.5393 121.072 61.488 120.953 61.4123C120.834 61.3366 120.731 61.2381 120.651 61.1224L119.025 57.4773C119.189 57.6998 119.432 57.8503 119.705 57.8969L119.932 57.929L121.71 58.2348L122.624 58.3984C122.899 58.4487 123.144 58.6051 123.305 58.834C123.466 59.0628 123.53 59.3457 123.485 59.6217C123.446 59.803 123.417 60.0093 123.378 60.2227C123.304 60.7742 123.269 61.3304 123.275 61.887Z" fill="#F9F9F9" stroke="#142533" stroke-miterlimit="10" stroke-linejoin="round"/>
<path d="M156.755 55.3863C156.562 55.104 156.321 54.8574 156.044 54.6573C153.782 52.6196 149.387 52.3138 145.219 54.1843C141.051 56.0548 138.323 59.5185 138.327 62.5626C138.308 62.9033 138.332 63.2449 138.398 63.5797L138.227 63.345L138.185 63.2632C138.117 63.128 137.996 62.9502 137.886 62.7333V62.7084C137.56 62.1435 137.289 61.5479 137.079 60.9303V60.9126C137.042 60.8393 137.014 60.7617 136.997 60.6814C136.953 60.6111 136.926 60.5323 136.915 60.4503C136.878 60.377 136.85 60.2994 136.833 60.2191L136.769 59.9951C136.769 59.9488 136.744 59.8742 136.737 59.8279C136.733 59.7735 136.733 59.7188 136.737 59.6643C136.72 59.5959 136.713 59.5251 136.716 59.4545C136.691 59.1908 136.691 58.9253 136.716 58.6615C136.692 58.5888 136.692 58.5102 136.716 58.4375C136.743 58.1422 136.794 57.8497 136.869 57.5627C137.09 56.7148 137.45 55.9096 137.936 55.18C138.347 54.5496 138.824 53.9643 139.358 53.434C140.259 52.5395 141.282 51.7758 142.395 51.1651C142.787 50.9338 143.195 50.7294 143.615 50.5535C148.494 48.3736 153.572 49.0919 155.407 52.1146C155.407 52.1146 155.539 52.3387 155.702 52.6623C156.078 53.3584 156.397 54.0839 156.655 54.8315C156.694 54.9809 156.723 55.1018 156.758 55.2049C156.76 55.2654 156.759 55.3259 156.755 55.3863Z" fill="#F9F9F9" stroke="#142533" stroke-miterlimit="10" stroke-linejoin="round"/>
<path d="M137.087 60.9055C137.046 60.859 137.017 60.8026 137.005 60.7419C136.988 60.6722 136.964 60.6043 136.934 60.5392C136.927 60.524 136.924 60.5077 136.924 60.4912C136.924 60.4747 136.927 60.4583 136.934 60.4432C136.944 60.5252 136.972 60.604 137.016 60.6743C137.029 60.7541 137.053 60.8317 137.087 60.9055Z" fill="#F9F9F9" stroke="#142533" stroke-miterlimit="10" stroke-linejoin="round"/>
<path d="M38.9821 37.0853L38.9251 36.9319C38.9251 36.9319 38.8715 37.0496 38.9821 37.0853Z" fill="#F9F9F9" stroke="#142533" stroke-miterlimit="10" stroke-linejoin="round"/>
<path d="M38.9821 37.0853L38.9251 36.9319C38.9251 36.9319 38.8715 37.0496 38.9821 37.0853Z" fill="#F9F9F9" stroke="#142533" stroke-miterlimit="10" stroke-linejoin="round"/>
<path d="M38.8262 36.8963L38.8833 37.0497C38.8833 37.0497 38.9368 36.932 38.8262 36.8963Z" fill="#F9F9F9" stroke="#142533" stroke-miterlimit="10" stroke-linejoin="round"/>
<path d="M72.8382 47.3301L4.91562 30.0365C3.39359 29.6489 2.11693 28.5536 2.0707 27.5863L1.04298 9.65974C0.986079 8.69602 2.17383 8.23728 3.69587 8.61423L71.6184 25.9078C73.1369 26.2954 74.4171 27.3907 74.4633 28.358L75.4946 46.281C75.5444 47.2483 74.3567 47.7177 72.8382 47.3301Z" fill="#F9F9F9" stroke="#142533" stroke-miterlimit="10" stroke-linejoin="round"/>
<path d="M72.971 44.2007L5.04845 26.9071C3.52641 26.5195 2.24975 25.4206 2.20352 24.4569L1.17579 6.53033C1.11889 5.56661 2.30665 5.10787 3.82869 5.48482L71.7512 22.7784C73.2697 23.166 74.5499 24.2613 74.5962 25.2286L75.6274 43.1516C75.6914 44.1047 74.5037 44.5883 72.971 44.2007Z" fill="#F9F9F9" stroke="#142533" stroke-miterlimit="10" stroke-linejoin="round"/>
<path d="M11.8336 11.1284C10.9374 10.9009 10.2333 11.1747 10.2689 11.7472L11.0014 24.5494C11.037 25.1219 11.7909 25.7691 12.687 25.9967C13.5832 26.2243 14.2873 25.9505 14.2553 25.378L13.5192 12.5758C13.4872 12.0033 12.7333 11.356 11.8336 11.1284Z" fill="#F9F9F9" stroke="#142533" stroke-miterlimit="10" stroke-linejoin="round"/>
<path d="M23.0361 13.9805C22.1364 13.7529 21.4358 14.0303 21.4679 14.5992L22.204 27.4014C22.236 27.9704 22.9899 28.6176 23.8896 28.8488C24.7893 29.0764 25.4899 28.799 25.4579 28.23L24.7217 15.4278C24.6897 14.8588 23.9323 14.2081 23.0361 13.9805Z" fill="#F9F9F9" stroke="#142533" stroke-miterlimit="10" stroke-linejoin="round"/>
<path d="M29.0361 16.58C28.14 16.3524 27.4358 16.6298 27.4678 17.1988L28.0795 27.8317C28.1115 28.4007 28.869 29.0479 29.7651 29.2755C30.6613 29.5031 31.3654 29.2293 31.3334 28.6567L30.7217 18.0274C30.6897 17.4584 29.9358 16.8112 29.0361 16.58Z" fill="#F9F9F9" stroke="#142533" stroke-miterlimit="10" stroke-linejoin="round"/>
<path d="M35.0986 20.2784C34.2025 20.0508 33.4983 20.3247 33.5303 20.8972L33.886 27.156C33.918 27.7286 34.6719 28.3758 35.5716 28.6034C36.4713 28.831 37.1683 28.5571 37.1363 27.9846L36.7807 21.7258C36.7522 21.1532 35.9983 20.506 35.0986 20.2784Z" fill="#F9F9F9" stroke="#142533" stroke-miterlimit="10" stroke-linejoin="round"/>
<path d="M41.1773 24.2933C40.2812 24.0657 39.5771 24.3431 39.6126 24.9121L39.6837 26.1674C39.7158 26.7364 40.4697 27.3836 41.3694 27.6112C42.2691 27.8388 42.9696 27.565 42.9376 26.9925L42.8629 25.7407C42.8309 25.1717 42.077 24.5209 41.1773 24.2933Z" fill="#F9F9F9" stroke="#142533" stroke-miterlimit="10" stroke-linejoin="round"/>
<path d="M46.8838 21.6404C45.9841 21.4128 45.2835 21.6902 45.3155 22.2592L45.8667 31.8608C45.8987 32.4298 46.6526 33.077 47.5523 33.3046C48.452 33.5322 49.1526 33.2584 49.1206 32.6859L48.5694 23.1056C48.5374 22.5188 47.7799 21.8716 46.8838 21.6404Z" fill="#F9F9F9" stroke="#142533" stroke-miterlimit="10" stroke-linejoin="round"/>
<path d="M52.7201 21.5409C51.8239 21.3133 51.1233 21.5871 51.1554 22.1596L51.8915 34.9618C51.9235 35.5343 52.6774 36.1815 53.5771 36.4091C54.4768 36.6367 55.1774 36.3629 55.1418 35.7904L54.4092 22.9882C54.3737 22.4121 53.6198 21.7685 52.7201 21.5409Z" fill="#F9F9F9" stroke="#142533" stroke-miterlimit="10" stroke-linejoin="round"/>
<path d="M58.8056 25.5131C57.9059 25.2819 57.2054 25.5593 57.2374 26.1319L57.6926 34.0194C57.7246 34.5884 58.4785 35.2356 59.3782 35.4668C60.2779 35.6979 60.9785 35.417 60.9429 34.848L60.4913 26.9605C60.4592 26.3879 59.7053 25.7407 58.8056 25.5131Z" fill="#F9F9F9" stroke="#142533" stroke-miterlimit="10" stroke-linejoin="round"/>
<path d="M64.5986 24.5636C63.6989 24.336 62.9983 24.6134 63.0304 25.1824L63.7665 37.9845C63.7985 38.5535 64.5559 39.2007 65.4521 39.4319C66.3482 39.663 67.0524 39.3821 67.0203 38.8131L66.2842 26.011C66.2522 25.442 65.4948 24.7912 64.5986 24.5636Z" fill="#F9F9F9" stroke="#142533" stroke-miterlimit="10" stroke-linejoin="round"/>
<path d="M17.4892 14.7202C16.5895 14.489 15.889 14.7664 15.921 15.3389L16.4224 23.7813C16.4544 24.3502 17.2119 25.001 18.108 25.2286C19.0042 25.4562 19.7083 25.1788 19.6763 24.6098L19.1926 16.1675C19.1429 15.595 18.3889 14.9442 17.4892 14.7202Z" fill="#F9F9F9" stroke="#142533" stroke-miterlimit="10" stroke-linejoin="round"/>
<path d="M132.289 11.4231H129.287V14.4245H132.289V11.4231Z" fill="#F9F9F9" stroke="#142533" stroke-miterlimit="10" stroke-linejoin="round"/>
<path d="M132.289 6.20976H129.287V9.21116H132.289V6.20976Z" fill="#F9F9F9" stroke="#142533" stroke-miterlimit="10" stroke-linejoin="round"/>
<path d="M132.289 1H129.287V4.00139H132.289V1Z" fill="#F9F9F9" stroke="#142533" stroke-miterlimit="10" stroke-linejoin="round"/>
<path d="M96.9462 84.2828L95.4739 88.2835L92.6895 84.1761L94.2506 80.3532L96.9462 84.2828Z" fill="#F9F9F9" stroke="#142533" stroke-miterlimit="10" stroke-linejoin="round"/>
<path d="M90.7757 89.0622L95.4769 88.2834L92.6925 84.1761L88.041 85.3247L90.7757 89.0622Z" fill="#F9F9F9" stroke="#142533" stroke-miterlimit="10" stroke-linejoin="round"/>
<path d="M94.2536 80.3532L89.371 81.6619L88.041 85.3247L92.6925 84.1761L94.2536 80.3532Z" fill="#F9F9F9" stroke="#142533" stroke-miterlimit="10" stroke-linejoin="round"/>
<path d="M39.3827 74.8061C39.845 75.1617 40.3215 75.4782 40.8051 75.7912C40.8302 75.8111 40.8577 75.8278 40.8869 75.841C41.0932 75.9725 41.303 76.1006 41.5164 76.2179C41.8009 76.3815 42.0925 76.5415 42.3805 76.6909C43.2499 77.1359 44.1508 77.5162 45.0761 77.8288C45.9422 78.1243 46.8305 78.3502 47.7325 78.5045C49.2352 78.7868 50.7737 78.8228 52.288 78.6112C54.7773 78.2556 56.8683 77.1176 58.1058 75.2435L59.5567 72.8751C59.2786 73.2965 58.9542 73.6853 58.5895 74.0344C58.2078 74.4019 57.7868 74.7263 57.3342 75.0017C56.2354 75.6534 55.016 76.0756 53.7495 76.2428C52.2365 76.4544 50.6991 76.4183 49.1977 76.1361C48.5552 76.0273 47.9199 75.88 47.2951 75.6952C47.0462 75.624 46.7973 75.5458 46.5448 75.464L46.1358 75.3182C45.9509 75.2542 45.7802 75.1831 45.5846 75.1084C45.5188 75.0869 45.4546 75.0608 45.3926 75.0302C45.037 74.8844 44.6814 74.7243 44.308 74.5501L43.867 74.3296C43.7247 74.2585 43.5825 74.1838 43.4438 74.1056L42.9815 73.8495C42.7468 73.7144 42.5085 73.5757 42.2703 73.4263C41.7724 73.1098 41.2923 72.7827 40.8478 72.4377C39.8017 71.6542 38.8389 70.7652 37.9744 69.7848C37.3676 69.101 36.8214 68.3657 36.3422 67.5871C35.486 66.247 34.9035 64.7508 34.6281 63.1846C34.4863 62.3717 34.4683 61.542 34.5748 60.7237C34.6435 60.204 34.77 59.6935 34.9517 59.2017C35.1298 58.7289 35.3613 58.2779 35.6416 57.8575L34.1907 60.2259C33.1826 61.8087 32.8186 63.7174 33.1736 65.5601C33.5582 67.5207 34.3772 69.3702 35.5705 70.9726C35.855 71.3709 36.1679 71.7597 36.5093 72.139C36.8116 72.4946 37.1352 72.8253 37.4766 73.1561C38.0741 73.7484 38.7109 74.2996 39.3827 74.8061Z" fill="#F9F9F9" stroke="#142533" stroke-miterlimit="10" stroke-linejoin="round"/>
<path d="M40.8344 72.4377C41.2896 72.7934 41.7696 73.1134 42.2568 73.4263C42.4951 73.5722 42.7334 73.7144 42.9681 73.8495C43.8453 74.3598 44.7622 74.7987 45.7099 75.1618C45.9837 75.272 46.2539 75.368 46.5278 75.4605C47.3893 75.755 48.2728 75.9809 49.17 76.1361C50.6714 76.4184 52.2088 76.4544 53.7219 76.2428C54.9965 76.0772 56.2244 75.655 57.3314 75.0017C57.7877 74.727 58.2123 74.4026 58.5974 74.0344C58.9623 73.6855 59.2867 73.2967 59.5646 72.8752C60.8022 71.0046 60.9871 68.6824 60.3043 66.3212C59.8716 64.8865 59.2021 63.5344 58.3235 62.3205C57.8036 61.5889 57.2256 60.9004 56.5952 60.2615C56.2254 59.8774 55.8307 59.5052 55.411 59.1448C55.2972 59.0417 55.1763 58.9421 55.0554 58.8426C54.6038 58.4692 54.1273 58.1135 53.633 57.7757C53.4089 57.6192 53.1778 57.4663 52.9431 57.3205C52.7084 57.1747 52.495 57.0467 52.2674 56.9151L51.8691 56.6911L51.4246 56.4528C51.2006 56.339 50.9765 56.2252 50.7525 56.1221C49.8634 55.701 48.9432 55.3491 48 55.0695L47.7333 54.9912C46.8404 54.7371 45.9281 54.5563 45.0057 54.4507C43.7568 54.3011 42.4932 54.3238 41.2504 54.5183C40.8948 54.5787 40.5392 54.657 40.1836 54.7494C38.3376 55.1926 36.7197 56.3004 35.6388 57.8611C35.361 58.2793 35.132 58.7279 34.956 59.1982C34.7727 59.6899 34.6439 60.2004 34.572 60.7202C34.4651 61.5394 34.4807 62.37 34.6182 63.1846C34.8921 64.7513 35.4747 66.2478 36.3323 67.5872C36.8136 68.3643 37.3596 69.0995 37.9645 69.7849C38.8263 70.7666 39.7881 71.6557 40.8344 72.4377Z" fill="#F9F9F9" stroke="#142533" stroke-miterlimit="10" stroke-linejoin="round"/>
<path d="M44.2445 70.4391C44.401 70.5387 44.5574 70.6312 44.7139 70.7201C45.4634 71.1514 46.253 71.5087 47.0716 71.7869C47.64 71.9804 48.2226 72.129 48.8142 72.2315C49.8078 72.4172 50.8249 72.4412 51.8262 72.3026C52.6626 72.1894 53.4678 71.9101 54.1946 71.4811C54.4965 71.3001 54.7769 71.0853 55.0303 70.841C55.2728 70.612 55.4877 70.3554 55.6704 70.0764C56.4883 68.8389 56.6164 67.3062 56.1612 65.7415C55.8735 64.7933 55.4287 63.9002 54.8454 63.0992C54.5019 62.6164 54.1215 62.1611 53.7074 61.7372C53.1064 61.1251 52.4465 60.5736 51.7373 60.0907C51.588 59.9876 51.4351 59.888 51.2786 59.7885C50.9479 59.5822 50.6136 59.3902 50.2757 59.2159C49.5027 58.8155 48.6914 58.4939 47.854 58.2558C47.2621 58.0899 46.6581 57.9709 46.0475 57.9001C44.9776 57.7654 43.8919 57.833 42.8469 58.0993C41.6236 58.3892 40.5508 59.1213 39.8349 60.1547C39.6527 60.4309 39.5024 60.7267 39.3868 61.0367C39.2636 61.3623 39.1789 61.7013 39.1343 62.0466C39.064 62.588 39.0736 63.1368 39.1628 63.6753C39.3466 64.71 39.732 65.6984 40.2972 66.5843C40.61 67.0991 40.9669 67.5857 41.364 68.0387C41.934 68.6869 42.5705 69.2733 43.263 69.7884C43.5973 70.0053 43.9138 70.2329 44.2445 70.4391Z" fill="#F9F9F9" stroke="#142533" stroke-miterlimit="10" stroke-linejoin="round"/>
<path d="M34.8755 69.9591C34.0204 68.6177 33.4357 67.1222 33.1543 65.5566L34.6088 63.1846C34.8826 64.7512 35.4653 66.2478 36.3228 67.5871L34.8755 69.9591Z" fill="#F9F9F9" stroke="#142533" stroke-miterlimit="10" stroke-linejoin="round"/>
<path d="M40.834 72.4377L39.3831 74.8061C38.3356 74.019 37.3726 73.1251 36.5098 72.139L37.9607 69.7706C38.8244 70.7559 39.7872 71.6497 40.834 72.4377Z" fill="#F9F9F9" stroke="#142533" stroke-miterlimit="10" stroke-linejoin="round"/>
<path d="M41.5332 76.2179L42.0204 76.4917L42.3973 76.6909C42.7779 76.8829 43.1584 77.0643 43.5424 77.2314C44.0593 77.4543 44.5761 77.6534 45.0929 77.8288L45.6939 76.762L46.1633 76.0508L46.5438 75.4747L46.3731 75.4142L46.1349 75.3289C45.9499 75.2649 45.7793 75.1937 45.5837 75.1191C45.5179 75.0976 45.4537 75.0714 45.3916 75.0408C45.036 74.895 44.6804 74.735 44.307 74.5607L43.866 74.3403C43.7238 74.2691 43.5815 74.1944 43.4429 74.1162L42.9806 73.8602L41.8177 75.7983L41.5332 76.2179Z" fill="#F9F9F9" stroke="#142533" stroke-miterlimit="10" stroke-linejoin="round"/>
<path d="M53.7388 76.2428L52.2879 78.6112C50.7737 78.8223 49.2354 78.7875 47.7324 78.5081L49.1869 76.1361C50.6883 76.4184 52.2257 76.4544 53.7388 76.2428Z" fill="#F9F9F9" stroke="#142533" stroke-miterlimit="10" stroke-linejoin="round"/>
<path d="M48.6001 65.7557L46.9785 64.3546L50.3071 64.6533L48.6001 65.7557Z" fill="#142533"/>
<path d="M51.4584 68.2166L48.5957 65.7557L50.3027 64.6533L51.4584 68.2166Z" fill="#142533"/>
<path d="M45.8262 65.93L48.6 65.7557L51.4627 68.2166L45.8262 65.93Z" fill="#142533"/>
<path d="M45.2822 65.1298L44.5176 61.9044L46.3241 63.5402L45.2822 65.1298Z" fill="#142533"/>
<path d="M46.3241 63.5402L44.5176 61.9044L49.674 63.7642L46.3241 63.5402Z" fill="#142533"/>
<path d="M45.8262 65.9299L46.9784 64.3546L48.6 65.7557L45.8262 65.9299Z" fill="#142533"/>
<path d="M195.723 210.8C192.022 215.131 186.773 217.852 183.889 216.984L183.345 216.796H183.32L183.234 216.767C183.016 216.663 182.828 216.505 182.687 216.308C182.576 216.273 182.63 216.156 182.519 216.12C182.505 216.115 182.492 216.106 182.48 216.095C182.469 216.085 182.461 216.071 182.455 216.057C182.45 216.042 182.448 216.027 182.449 216.011C182.45 215.996 182.455 215.981 182.463 215.967C182.399 215.859 182.344 215.746 182.299 215.629C181.588 213.851 182.612 210.796 185.336 207.614C187.021 205.619 189.052 203.944 191.332 202.671C193.547 201.476 195.67 200.964 197.157 201.412C197.646 201.65 198.107 201.943 198.529 202.287L198.586 202.443C198.862 202.877 198.987 203.389 198.942 203.901C199.088 205.825 198.003 208.25 195.723 210.8Z" fill="#F9F9F9" stroke="#142533" stroke-miterlimit="10" stroke-linejoin="round"/>
<path d="M160.639 75.6839C160.034 77.0497 159.32 78.3649 158.506 79.6171C157.887 80.6765 157.183 81.6839 156.4 82.6291C156.503 82.398 156.447 82.245 156.55 82.0139C156.638 81.768 156.67 81.5058 156.646 81.2458C156.824 79.9966 156.926 78.7378 156.951 77.4762L156.919 75.8618C156.855 75.4386 156.955 74.9371 156.891 74.514C156.921 74.4277 156.921 74.3336 156.891 74.2473C156.773 72.3608 156.519 70.4854 156.13 68.6356C155.929 67.3762 155.597 66.1413 155.138 64.9515L154.452 63.1129C154.376 62.9302 154.336 62.7346 154.334 62.5368L154.277 62.3804L154.22 62.2275L154.103 61.9216C153.819 61.1535 153.424 60.3498 153.082 59.4323C152.874 58.9291 152.629 58.4418 152.35 57.9743C152.137 57.6258 151.967 57.2534 151.841 56.8648C151.706 56.5659 151.538 56.2831 151.34 56.022C150.578 54.5723 149.738 53.1656 148.822 51.8079C148.541 51.3101 148.21 50.926 147.93 50.4281C147.606 49.9099 147.234 49.423 146.82 48.9737C146.429 48.4367 146.109 48.0562 145.707 47.5192C145.486 47.1636 145.209 46.9467 144.996 46.6017C144.498 46.0292 143.996 45.4531 143.392 44.8236C142.894 44.2511 142.286 43.6394 141.788 43.0669C141.347 42.6473 140.849 42.0712 140.408 41.6444C139.677 40.8907 138.904 40.1784 138.093 39.5107C137.709 39.244 137.485 38.9026 137.101 38.6324C136.937 38.4439 136.827 38.4048 136.66 38.2127C136.493 38.0207 136.219 37.7931 136.056 37.6011C135.615 37.1815 135.23 36.9147 134.79 36.4951C134.622 36.3031 134.405 36.2284 134.238 36.0364C133.837 35.6575 133.394 35.3247 132.919 35.0442L132.094 34.3579C131.71 34.0912 131.436 33.8636 131.052 33.5969C130.754 33.3443 130.443 33.1069 130.12 32.8856C130.01 32.8465 129.843 32.6545 129.736 32.6189C129.459 32.3878 129.132 32.2633 128.858 32.0464C128.584 31.8188 128.257 31.6908 127.873 31.4383C127.379 31.1324 126.994 30.8657 126.504 30.5599C126.283 30.4852 126.12 30.2932 125.899 30.2043C125.408 29.8985 124.807 29.5571 124.313 29.2512C122.617 28.2626 120.867 27.3878 119.011 26.4774C118.585 26.2146 118.126 26.01 117.645 25.8693C117.255 25.6233 116.832 25.4319 116.39 25.3003L111.298 23.156L109.121 22.3985L106.397 21.4526L105.526 21.1503L105.305 21.0756C104.653 20.8274 103.979 20.6382 103.293 20.5102C102.642 20.2826 101.934 20.1546 101.159 19.9092L97.7344 19.1233C97.137 19.0486 96.6996 18.8957 96.1057 18.8246L95.7785 18.7108C95.0673 18.6005 94.5268 18.4085 93.8226 18.2983C93.4955 18.1845 93.1114 18.188 92.7878 18.0742C91.9734 17.9249 91.2693 17.8146 90.455 17.6653C90.078 17.6653 89.7437 17.555 89.3703 17.555C88.7729 17.4839 88.2857 17.4484 87.6883 17.3737C87.401 17.3471 87.1125 17.3364 86.8241 17.3417L85.359 17.235C84.982 17.235 84.4948 17.1994 84.1143 17.203C83.7338 17.2065 83.4031 17.0927 83.0475 17.0927C82.5603 17.0572 82.1833 17.0607 81.6962 17.0252C80.9387 17.0252 80.231 16.9185 79.4736 16.922C78.9864 16.8865 78.3391 16.922 77.852 16.8936C77.5817 16.9363 77.3648 16.858 77.0945 16.8936C76.714 16.8936 76.4437 16.9327 76.0668 16.9363C75.5411 16.9232 75.0155 16.9649 74.4985 17.0607C73.8513 17.1034 73.0938 17.107 72.4466 17.1496C71.4692 17.2034 70.4956 17.3126 69.5305 17.4768C68.7197 17.5942 67.8023 17.676 66.9915 17.7969C66.1806 17.9178 65.2134 18.1169 64.4061 18.2378C63.8656 18.3161 63.4353 18.4334 62.8948 18.5152C62.7845 18.4761 62.6245 18.5543 62.4645 18.6326L60.3628 19.1055C59.5022 19.3402 58.6416 19.5785 57.6174 19.8914C57.0271 20.087 56.3265 20.247 55.7362 20.4391C54.9823 20.7129 54.232 20.9867 53.6417 21.1823C52.7277 21.5379 51.924 21.9256 51.0101 22.2741L49.5627 22.9853L48.599 23.4547C48.1878 23.6963 47.7572 23.9033 47.3117 24.0735C46.348 24.5393 45.4376 25.1617 44.5841 25.6666C43.7306 26.1716 42.9803 26.7121 42.2335 27.2562C42.0201 27.4483 41.8601 27.5265 41.6467 27.7221C41.0825 28.1203 40.5488 28.5601 40.05 29.0379C39.89 29.1161 39.7869 29.3472 39.6233 29.4255C39.4597 29.5037 39.3601 29.7349 39.2001 29.8095C38.9334 30.1189 38.6133 30.2754 38.3502 30.5848C38.0999 30.8785 37.8131 31.139 37.4967 31.36C36.597 32.2491 35.6404 33.2555 34.8474 34.1801C34.6419 34.4155 34.4484 34.6612 34.2677 34.9162C34.161 35.1473 34.001 35.2256 33.9121 35.4567C34.1077 34.4539 34.3068 33.4546 34.5593 32.6118C35.0237 30.992 35.6012 29.4068 36.2876 27.8679C36.9854 26.3114 37.7874 24.8037 38.688 23.3551C51.7676 2.90369 85.615 -3.79611 117.724 8.5473C149.729 20.8516 168.541 47.9566 162.115 70.9863C161.852 72.6151 161.355 74.1973 160.639 75.6839Z" fill="#F9F9F9" stroke="#142533" stroke-miterlimit="10" stroke-linejoin="round"/>
<path d="M141.772 121.69C140.298 121.494 138.803 121.524 137.338 121.779C129.365 123.201 126.225 131.409 125.602 133.265L121.886 127.856L121.712 127.604L115.154 118.173C114.82 117.219 114.612 116.225 114.536 115.218C114.403 113.342 114.785 111.465 115.642 109.791C116.665 107.792 118.209 106.108 120.112 104.916C121.576 104.009 123.211 103.415 124.916 103.169C126.602 102.967 128.017 103.287 128.707 104.204C129.162 104.716 129.624 105.25 130.087 105.808C131.085 107.15 132.141 108.564 133.255 110.051C134.742 112.046 136.324 114.183 137.978 116.452C138.02 116.509 138.063 116.562 138.102 116.622C139.297 118.268 140.52 119.957 141.772 121.69Z" fill="#F9F9F9" stroke="#142533" stroke-miterlimit="10" stroke-linejoin="round"/>
<path d="M198.951 203.901C198.926 203.901 198.901 203.901 198.844 203.858C197.404 203.289 195.181 203.727 192.827 204.875C190.62 205.976 188.612 207.438 186.885 209.2C184.072 212.098 182.774 214.989 183.354 216.792H183.329C183.121 216.687 182.942 216.533 182.806 216.344L182.582 215.988L182.308 215.633L182.194 215.476L128.038 136.807L127.846 136.523C127.899 136.37 127.963 136.188 128.045 135.982C128.077 135.89 128.116 135.794 128.159 135.69C128.312 135.306 128.514 134.855 128.738 134.357C128.802 134.229 128.866 134.09 128.937 133.955C128.955 133.912 128.98 133.87 129.001 133.827C129.087 133.66 129.179 133.489 129.272 133.311C129.8 132.338 130.407 131.409 131.085 130.534C131.253 130.324 131.441 130.118 131.597 129.912C132.05 129.381 132.538 128.882 133.059 128.418C133.272 128.226 133.489 128.038 133.717 127.856C133.934 127.682 134.161 127.501 134.393 127.348C134.624 127.195 134.858 127.031 135.104 126.882L135.321 126.754C135.41 126.697 135.499 126.647 135.587 126.601C135.783 126.491 135.982 126.384 136.188 126.288C136.732 126.02 137.296 125.794 137.874 125.612C138.087 125.541 138.308 125.477 138.532 125.42C138.756 125.363 138.937 125.317 139.144 125.274C139.35 125.232 139.449 125.214 139.606 125.189C140.751 124.995 141.915 124.942 143.073 125.033C143.457 125.061 143.852 125.104 144.254 125.161L144.371 125.324C164.801 153.749 191.533 192.251 198.528 202.287L198.585 202.443C198.864 202.875 198.993 203.388 198.951 203.901Z" fill="#F9F9F9" stroke="#142533" stroke-miterlimit="10" stroke-linejoin="round"/>
<path opacity="0.2" d="M157.026 79.2437C157.069 78.5893 157.058 78.0524 157.101 77.398C157.118 76.9486 157.109 76.4985 157.072 76.0503C157.126 75.9365 157.072 75.7835 157.122 75.6662C157.058 75.243 157.158 74.7451 157.093 74.322C157.124 74.2345 157.124 74.1392 157.093 74.0517C157.072 72.9848 156.891 71.9785 156.816 71.0183C156.705 70.1517 156.544 69.2922 156.336 68.4436C156.291 68.0529 156.21 67.6672 156.094 67.2914C155.863 66.4095 155.739 65.5631 155.451 64.8021L154.768 62.96L154.412 62.039C154.355 61.8861 154.412 61.7687 154.298 61.7332C154.131 61.2424 153.923 60.7666 153.676 60.3107L153.505 59.8484C153.446 59.6651 153.351 59.4958 153.224 59.3505L153.168 59.1976C152.997 58.7389 152.773 58.3939 152.602 57.9316C152.378 57.576 152.318 57.1635 152.094 56.8221C152.037 56.6656 151.87 56.4665 151.813 56.3207C151.756 56.1749 151.649 56.1322 151.699 56.0149C151.589 55.9793 151.642 55.862 151.532 55.8228C151.274 55.2178 150.936 54.6507 150.525 54.1372C150.424 53.8811 150.273 53.6478 150.081 53.4509C149.857 53.0953 149.576 52.6081 149.37 52.2631C149.309 52.1067 149.252 51.9537 149.145 51.9075C149.13 51.9028 149.117 51.8948 149.105 51.8839C149.094 51.8731 149.085 51.8598 149.08 51.845C149.074 51.8303 149.072 51.8144 149.074 51.7988C149.075 51.7831 149.08 51.768 149.089 51.7546C148.754 51.3705 148.584 50.9118 148.253 50.5277C147.928 50.0103 147.557 49.5235 147.143 49.0733C146.976 48.8812 146.752 48.5363 146.585 48.362C146.478 48.3229 146.528 48.2056 146.421 48.17C146.254 47.978 146.197 47.8144 146.03 47.633C145.81 47.2774 145.532 47.0605 145.319 46.7155C144.821 46.143 144.323 45.5669 143.719 44.9552C143.464 44.6178 143.186 44.2982 142.887 43.9986C142.72 43.8101 142.663 43.643 142.446 43.579C142.389 43.4261 142.172 43.3514 142.115 43.1985C141.838 42.9673 141.617 42.6224 141.34 42.3948C141.176 42.2028 140.899 41.9752 140.735 41.7831L140.625 41.744C139.948 40.9851 139.211 40.2823 138.42 39.6423C138.036 39.3756 137.812 39.0307 137.428 38.764C137.211 38.6893 137.154 38.5364 136.987 38.3443C136.808 38.1314 136.583 37.9623 136.329 37.85C135.888 37.4304 135.504 37.1637 135.063 36.7405L134.953 36.705L134.569 36.4382C134.462 36.3991 134.295 36.2071 134.185 36.1715C133.911 35.9404 133.527 35.6737 133.253 35.4603L132.428 34.774C132.044 34.5072 131.767 34.2761 131.386 34.0094C131.099 33.7443 130.763 33.5377 130.397 33.4013C130.291 33.3622 130.124 33.1701 130.013 33.1346C129.74 32.9034 129.412 32.779 129.139 32.562C128.882 32.3213 128.584 32.1275 128.26 31.9895C127.769 31.6872 127.275 31.3814 126.891 31.1147C126.728 30.9427 126.52 30.8196 126.29 30.7591C125.796 30.4532 125.195 30.1118 124.7 29.806C123.004 28.8174 121.308 27.8288 119.452 26.9149C119.024 26.6553 118.565 26.4521 118.086 26.3103C117.652 26.1574 117.268 25.8907 116.831 25.7413L111.756 23.5792L109.58 22.8217L106.856 21.8793L105.984 21.5771L105.764 21.4988C105.111 21.251 104.438 21.0618 103.751 20.9334C103.097 20.7094 102.393 20.5778 101.617 20.3324L98.1929 19.5465C97.5955 19.4718 97.1581 19.3225 96.5642 19.2478L96.237 19.134C95.5258 19.0238 94.9853 18.8353 94.2811 18.7215C93.954 18.6112 93.5699 18.6112 93.2463 18.4974C92.432 18.3481 91.7278 18.2378 90.9135 18.0885C90.5605 17.9924 90.1938 17.9563 89.8288 17.9818C89.2314 17.9071 88.7442 17.8716 88.1468 17.7969C87.821 17.7904 87.4957 17.7667 87.1724 17.7258L85.7108 17.6191C85.3303 17.6191 84.8431 17.5871 84.4662 17.5906C84.0892 17.5942 83.7549 17.4768 83.3815 17.4804C82.8943 17.4448 82.5138 17.4484 82.0266 17.4128C81.9164 17.3737 81.7564 17.4519 81.6461 17.4128C81.0167 17.3578 80.3837 17.3578 79.7543 17.4128C79.2671 17.3773 78.6198 17.4128 78.1291 17.3844C77.8624 17.427 77.6419 17.3488 77.3716 17.3844C76.9947 17.3844 76.7244 17.427 76.3475 17.427C75.8218 17.4138 75.2962 17.4555 74.7792 17.5515C74.132 17.5942 73.4812 17.6369 72.7237 17.6404C71.8063 17.7222 70.7785 17.7684 69.8788 17.8502C69.0716 17.9711 68.1505 18.0529 67.3433 18.1738C66.536 18.2947 65.5652 18.4903 64.7544 18.6112C64.246 18.6766 63.7415 18.7692 63.243 18.8886C63.083 18.9669 62.9728 18.9313 62.8127 19.006L60.711 19.4825C59.8505 19.7172 58.9899 19.9519 57.9693 20.2648C57.3514 20.4825 56.7222 20.6665 56.0845 20.8161C55.3341 21.0899 54.5802 21.3637 53.9899 21.5593C53.076 21.9149 52.2723 22.299 51.3584 22.651L49.911 23.3623L48.9473 23.8281C48.537 24.0724 48.1063 24.2806 47.66 24.4504C47.1285 24.7863 46.5748 25.0857 46.0028 25.3466C45.6239 25.6024 45.2214 25.8215 44.8008 26.0009C44.6408 26.0756 44.4274 26.2712 44.2674 26.3565C43.6368 26.7308 43.031 27.1453 42.4538 27.5976C42.2404 27.7897 42.0804 27.8679 41.867 28.0599C41.6474 28.2785 41.3955 28.462 41.1202 28.604C40.8358 28.8009 40.5682 29.0209 40.3201 29.2619L40.2703 29.3793C40.1067 29.4575 40.0569 29.5713 39.8435 29.7669C39.6835 29.8416 39.5804 30.0727 39.4168 30.151C39.1536 30.4603 38.8336 30.6168 38.5669 30.9262C38.3158 31.2174 38.0277 31.4745 37.7098 31.6908C37.4467 32.0002 37.0733 32.2704 36.8066 32.5798C36.2374 33.1666 35.7075 33.7902 35.2205 34.4468C34.887 35.2212 34.6135 36.0201 34.4026 36.8365L34.3493 36.9503L34.2106 38.1061C33.9722 40.8107 34.0606 43.5342 34.4737 46.2177C34.5306 46.3706 34.4737 46.4844 34.5378 46.6373C35.296 50.9544 36.6333 55.1494 38.5135 59.1087C42.9658 68.2729 50.6542 76.9535 60.7466 83.9271C60.9657 84.0318 61.1551 84.1895 61.2978 84.3859L65.0922 86.9001C66.6818 87.8531 68.2679 88.8062 70.0175 89.6774C72.4748 90.9328 74.9961 92.0707 77.6063 93.2336C78.2663 93.4391 78.9056 93.7058 79.516 94.0302C80.6077 94.4071 81.6497 94.9014 82.841 95.3175C91.6091 98.3896 100.81 100.047 110.099 100.229C122.332 100.463 133.754 98.0131 142.968 93.1909C147.787 90.5843 151.998 87.3695 155.333 83.5893C155.788 82.9101 156.19 82.1968 156.535 81.4556C156.78 80.7386 156.944 79.9968 157.026 79.2437Z" fill="#F9F9F9"/>
<path d="M154.104 90.2535C147.727 104.478 132.205 113.258 113.524 115.331C102.781 116.548 90.9641 115.388 79.2075 111.843C76.9889 111.205 74.8069 110.447 72.6713 109.571C38.422 96.3629 19.2934 66.3348 30.0259 42.3983L30.2855 41.8187C30.9078 40.4318 34.8125 32.5727 34.8125 32.5727C34.5295 33.5044 34.3132 34.4551 34.1652 35.4176C33.9732 36.6871 33.7314 38.074 33.646 39.3827C33.4113 42.1598 33.5573 44.9559 34.0799 47.6934C36.2918 61.2886 45.6978 74.8447 60.2887 84.9833C65.8292 88.895 72.1699 92.1774 79.0972 94.9832C108.098 106.114 138.638 101.74 153.798 85.6198C154.715 84.6755 155.581 83.6818 156.39 82.6433C157.077 81.6796 157.759 80.7123 158.495 79.6312L155.8 85.6447L155.747 85.7621C155.413 87.0684 154.968 88.3438 154.417 89.5743L154.104 90.2535Z" fill="#F9F9F9" stroke="#142533" stroke-miterlimit="10" stroke-linejoin="round"/>
<path d="M157.674 79.201C157.398 79.87 157.066 80.5147 156.682 81.1284C156.916 79.8862 157.019 78.6227 156.988 77.3589L156.956 75.7444C156.895 75.3212 156.995 74.8234 156.931 74.4002C156.962 74.3127 156.962 74.2174 156.931 74.1299C156.813 72.2446 156.559 70.3704 156.17 68.5219C155.952 67.233 155.639 65.9623 155.231 64.7203L154.545 62.8818L154.189 61.9607C154.132 61.8078 154.189 61.6905 154.075 61.6514C153.791 60.8868 153.396 60.0795 153.051 59.1621C152.774 58.6642 152.603 58.2054 152.322 57.7076C152.098 57.352 152.034 56.9395 151.814 56.5945C151.678 56.2953 151.509 56.0125 151.309 55.7517C150.546 54.303 149.705 52.8963 148.791 51.5377C148.514 51.0398 148.179 50.6593 147.898 50.1579C147.573 49.6409 147.201 49.1541 146.789 48.7034C146.401 48.17 146.078 47.7859 145.679 47.2525C145.455 46.8969 145.182 46.6764 144.968 46.3314C144.47 45.7589 143.972 45.1864 143.364 44.5747C142.866 43.9986 142.258 43.387 141.76 42.7966C141.32 42.377 140.932 41.84 140.381 41.3742C139.651 40.6196 138.88 39.9072 138.069 39.2405C137.685 38.9738 137.461 38.6288 137.077 38.3621C136.86 38.2874 136.803 38.131 136.636 37.9425C136.457 37.7293 136.232 37.5591 135.978 37.4446C135.537 37.025 135.153 36.7583 134.712 36.3387L134.161 35.8799C133.759 35.5023 133.317 35.1707 132.842 34.8913L132.017 34.205C131.633 33.9382 131.359 33.7071 130.975 33.4404C130.688 33.1765 130.354 32.97 129.99 32.8323C129.879 32.7932 129.716 32.6047 129.606 32.5656C129.332 32.338 129.005 32.21 128.727 31.993C128.472 31.7527 128.176 31.56 127.852 31.424C127.358 31.1182 126.867 30.8124 126.483 30.5457C126.318 30.3742 126.109 30.2512 125.879 30.1901C125.388 29.8842 124.787 29.5428 124.293 29.237C122.596 28.2484 120.9 27.2598 119.044 26.3494C118.616 26.0893 118.157 25.885 117.678 25.7413C117.241 25.5884 116.857 25.3217 116.423 25.1723L111.348 23.0102L109.186 22.2847L106.462 21.3388L105.573 21.0223L105.356 20.9476C104.704 20.6987 104.03 20.5094 103.343 20.3822C102.689 20.1546 101.985 20.0266 101.21 19.7776L97.8064 19.006C97.2125 18.9313 96.7751 18.7819 96.1777 18.7072L95.8505 18.5934C95.1393 18.4832 94.6023 18.2947 93.8946 18.1845C93.5675 18.0707 93.1834 18.0707 92.8634 17.9604C92.049 17.8111 91.3449 17.6973 90.5305 17.5515C90.1777 17.4544 89.8111 17.4171 89.4459 17.4412C88.8485 17.3666 88.3791 17.331 87.7638 17.2599C87.4936 17.299 87.1664 17.1852 86.7894 17.1888L85.3243 17.0821C84.9474 17.0821 84.4602 17.0465 84.0797 17.0501C83.6992 17.0536 83.3684 16.9398 82.995 16.9398C82.5078 16.9043 82.1309 16.9078 81.6437 16.8723C80.8862 16.8723 80.1786 16.7656 79.4211 16.7691C78.9339 16.7336 78.2867 16.7691 77.7995 16.7407C77.5292 16.7798 77.3087 16.7051 77.042 16.7407C76.6615 16.7407 76.3913 16.7834 76.0143 16.7869C75.4886 16.772 74.9628 16.8137 74.446 16.9114C73.7988 16.9541 73.1516 16.9967 72.3941 17.0003C71.4731 17.0821 70.4489 17.1283 69.5279 17.2101C68.7206 17.331 67.8031 17.4128 66.9923 17.5337C66.1815 17.6546 65.2143 17.8502 64.4035 17.9711C63.896 18.0347 63.3925 18.1273 62.8957 18.2485C62.7321 18.3267 62.6254 18.2876 62.4618 18.3658L62.3018 18.4441C61.6672 18.6266 61.0191 18.7586 60.3637 18.8388C59.5031 19.0771 58.6389 19.3118 57.6183 19.6247C57.028 19.8203 56.4341 20.0159 55.7336 20.1759C54.9832 20.4498 54.2293 20.7236 53.639 20.9192C52.7251 21.2748 51.9214 21.6588 51.011 22.0109L49.5636 22.7221L48.5964 23.188C48.223 23.4583 47.7927 23.5792 47.4193 23.8494L47.2592 23.9277C46.2955 24.3935 45.3852 25.0159 44.5317 25.5173C43.6782 26.0187 42.9278 26.5663 42.1811 27.1104C41.9677 27.3025 41.8077 27.3807 41.5943 27.5727C41.0308 27.9732 40.4971 28.4142 39.9976 28.8921C39.8376 28.9667 39.7842 29.0841 39.5708 29.2761C39.4108 29.3544 39.3077 29.5855 39.1477 29.6638C38.8809 29.9731 38.5609 30.1296 38.2942 30.439C38.046 30.7335 37.7603 30.9941 37.4443 31.2142C36.541 32.1033 35.5879 33.1061 34.7949 34.0343C35.1043 33.3408 35.2572 32.7256 35.5666 32.0321C37.5656 27.615 40.4541 23.6575 44.0516 20.4071C46.9106 17.7962 50.1063 15.58 53.5536 13.8175C69.7768 5.41078 93.0803 4.53952 115.377 13.1988C149.506 26.3885 168.147 55.8406 157.674 79.201Z" fill="#F9F9F9" stroke="#142533" stroke-miterlimit="10" stroke-linejoin="round"/>
<path d="M137.992 116.477C135.687 115.353 131.484 114.503 126.676 118.02C121.697 121.647 121.633 125.843 121.697 127.597C121.697 127.718 121.697 127.497 121.697 127.597L114.98 118.244C114.456 116.674 114.257 115.014 114.397 113.365C114.397 113.095 114.496 112.864 114.436 112.711C114.622 111.756 114.914 110.826 115.307 109.937C116.391 107.838 118.053 106.093 120.097 104.908C123.497 102.878 127.377 102.494 128.682 104.219C129.137 104.731 129.599 105.264 130.062 105.822C131.06 107.164 132.116 108.578 133.23 110.065C134.749 112.06 136.331 114.194 137.992 116.477Z" fill="#F9F9F9" stroke="#142533" stroke-miterlimit="10" stroke-linejoin="round"/>
<path d="M85.0334 26.7619C90.2077 26.2036 99.8199 26.5272 110.887 33.483C111.426 33.8335 111.806 34.3823 111.943 35.0105C112.081 35.6388 111.966 36.2961 111.623 36.8401C111.283 37.4341 110.746 37.8904 110.105 38.1295C109.463 38.3686 108.759 38.3754 108.113 38.1487C103.767 36.4702 93.8598 33.0314 85.3535 32.8714C84.9156 32.8725 84.4854 32.7567 84.1072 32.536C83.729 32.3154 83.4165 31.9978 83.202 31.6161L82.7113 30.7164C81.808 29.0876 83.0562 26.9717 85.0334 26.7619Z" fill="#F9F9F9" stroke="#142533" stroke-miterlimit="10" stroke-linejoin="round"/>
<path d="M144.264 125.161C143.862 125.1 143.464 125.058 143.08 125.033C141.921 124.942 140.755 124.995 139.609 125.189C139.456 125.214 139.3 125.243 139.15 125.275C138.944 125.317 138.741 125.363 138.539 125.42C138.336 125.477 138.094 125.541 137.881 125.612C137.307 125.794 136.749 126.018 136.209 126.284C136.003 126.38 135.804 126.484 135.608 126.597C135.519 126.644 135.431 126.693 135.342 126.75L135.125 126.875C134.879 127.028 134.641 127.184 134.414 127.344C134.186 127.504 133.958 127.675 133.738 127.849C133.507 128.031 133.286 128.205 133.076 128.411C132.555 128.875 132.067 129.374 131.615 129.905C131.437 130.111 131.259 130.317 131.103 130.527C130.424 131.402 129.817 132.331 129.289 133.304C129.193 133.479 129.104 133.66 129.019 133.82C128.997 133.863 128.973 133.905 128.955 133.948C128.884 134.083 128.82 134.222 128.756 134.35C128.521 134.848 128.329 135.299 128.176 135.683C128.133 135.787 128.094 135.883 128.062 135.975C127.98 136.181 127.916 136.363 127.863 136.516L125.758 133.454L125.619 133.258C126.234 131.402 129.374 123.201 137.354 121.772C138.82 121.517 140.315 121.487 141.789 121.683C141.867 121.8 141.949 121.91 142.034 122.038C142.755 123.063 143.498 124.103 144.264 125.161Z" fill="#F9F9F9" stroke="#142533" stroke-miterlimit="10" stroke-linejoin="round"/>
</svg>
